<svg width="640" height="180" viewBox="0 0 640 180" fill="none" xmlns="http://www.w3.org/2000/svg">
  <defs>
    <linearGradient id="aggr-red" x1="96" y1="58" x2="381" y2="142" gradientUnits="userSpaceOnUse">
      <stop stop-color="#F04A3A"/>
      <stop offset="1" stop-color="#A81323"/>
    </linearGradient>
    <linearGradient id="aggr-blue" x1="198" y1="18" x2="560" y2="130" gradientUnits="userSpaceOnUse">
      <stop stop-color="#2B5C9A"/>
      <stop offset="1" stop-color="#0E2954"/>
    </linearGradient>
  </defs>

  <path d="M156 47C244 18 381 19 517 59" stroke="url(#aggr-blue)" stroke-width="7" stroke-linecap="round"/>
  <path d="M422 31H495C507 31 516 39 518 50L521 62H504L487 47H432L418 62H400L406 48C409 38 415 31 422 31Z" fill="#0E2954"/>
  <path d="M395 69H528L548 78L543 91H392L395 69Z" fill="#173A67"/>
  <path d="M418 94C418 89 422 85 427 85H442C447 85 451 89 451 94C451 99 447 103 442 103H427C422 103 418 99 418 94Z" fill="#0E2954"/>
  <path d="M497 94C497 89 501 85 506 85H521C526 85 530 89 530 94C530 99 526 103 521 103H506C501 103 497 99 497 94Z" fill="#0E2954"/>

  <path d="M98 59C118 59 136 75 146 101L156 128H122C108 128 97 117 97 103V60C97 59 98 59 98 59Z" fill="url(#aggr-red)"/>
  <path d="M126 77L131 87L142 88L134 95L137 106L126 100L115 106L118 95L110 88L121 87L126 77Z" fill="white"/>

  <path d="M178 126L220 56H247L289 126H264L257 113H217L210 126H178ZM224 96H249L236 72L224 96Z" fill="url(#aggr-blue)"/>

  <path d="M294 110L313 100C320 112 332 118 347 118C360 118 370 114 370 106C370 98 362 95 346 92L335 90C310 85 297 75 297 58C297 36 316 23 345 23C372 23 390 35 397 56L377 63C372 51 361 43 345 43C333 43 323 48 323 57C323 65 330 69 347 72L357 74C384 79 397 89 397 106C397 129 378 140 347 140C319 140 300 129 294 110Z" fill="url(#aggr-red)"/>
  <path d="M341 13H356L350 36H336L341 13ZM333 127H347L342 152H328L333 127Z" fill="#0E2954"/>
  <path d="M347 40L353 55H369L356 64L361 79L347 70L333 79L338 64L325 55H341L347 40Z" fill="white"/>
  <path d="M300 136L391 39" stroke="#E23B35" stroke-width="8" stroke-linecap="round"/>

  <text x="94" y="163" fill="#0E2954" font-family="Arial, Helvetica, sans-serif" font-size="34" font-style="italic" font-weight="900" letter-spacing="-1">NorthAmCars.com</text>
</svg>
